<svg id="Layer_1" data-name="Layer 1" xmlns="http://www.w3.org/2000/svg" viewBox="0 0 100 100"><defs><style>.cls-1{fill:#777;}</style></defs><title>Untitled-3</title><path class="cls-1" d="M49.6,44.73a5.25,5.25,0,1,0,2.51.58,5.24,5.24,0,0,0-2.51-.58h0Z"/><path class="cls-1" d="M56,50.57a6.33,6.33,0,0,1-2,4c1.71,2,4.59,5.22,5.42,5.65,1.15,0.59,16.56,5.64,21.71,6.82,3.15,0.73,10.85,2.27,11.54.76a1,1,0,0,0-.27-1c-0.87-1.19-7.92-4.89-8.38-5.13C67.29,52.88,59.3,50.94,56,50.57h0Z"/><path class="cls-1" d="M43.78,4a1,1,0,0,0-.73.74c-0.6,1.35-.28,9.3-0.25,9.81,0.7,18.59,3,26.53,4.31,29.69A6.27,6.27,0,0,1,51.69,44c0.86-2.48,2.19-6.48,2.14-7.4-0.06-1.29-3.39-17.16-4.94-22.22C48,11.3,45.43,3.87,43.78,4h0Z"/><path class="cls-1" d="M43.5,50.87c-2.54.49-7,1.39-7.78,1.9-1.09.7-13.17,11.52-16.77,15.39C16.38,70.91,9.79,78.45,13.52,78c1.47-.16,8.2-4.41,8.63-4.69C37.86,63.48,43.62,57.56,45.7,54.8a6.29,6.29,0,0,1-2.2-3.93h0Z"/></svg>