<svg id="Layer_1" data-name="Layer 1" xmlns="http://www.w3.org/2000/svg" viewBox="0 0 100 200"><defs><style>.cls-1{fill:#777;}</style></defs><title>Untitled-3</title><path class="cls-1" d="M47.1,66h6l2.68,134H43.65Z"/><path class="cls-1" d="M47.11,56.08v6.85h6V56.11A13.37,13.37,0,0,1,47.11,56.08Z"/><path class="cls-1" d="M45.62,63.45a0.78,0.78,0,0,0-.32.82V64.7a0.78,0.78,0,0,0,.32.82h9A0.78,0.78,0,0,0,55,64.7V64.27a0.78,0.78,0,0,0-.32-0.82h-9Zm9,0.11h0a1.66,1.66,0,0,1,.17.73v0.39a1.67,1.67,0,0,1-.17.72h0a3,3,0,0,0,.08-0.66V64.22a2.84,2.84,0,0,0-.08-0.66h0Z"/></svg>