<svg xmlns="http://www.w3.org/2000/svg" viewBox="0 0 100 100">
    <g transform="translate(0,-952.36217)">
        <path d="m 52.032964,981.03514 c -1.255809,0.0277 -2.456062,0.72451 -3.071613,1.91975 -0.895349,1.73855 -0.212098,3.8744 1.526442,4.76975 1.738541,0.89534 3.874394,0.21209 4.769741,-1.52645 0.895349,-1.73854 0.212099,-3.87439 -1.526442,-4.76974 -0.543294,-0.27979 -1.127305,-0.40591 -1.698128,-0.39331 z"/>
        <path d="m 56.334032,984.98211 c -0.04983,0.52212 -0.197859,1.04165 -0.452665,1.53642 -0.235879,0.45802 -0.543385,0.85701 -0.902025,1.18618 1.155573,1.33508 3.100732,3.52774 3.660967,3.81626 0.776522,0.39991 11.183654,3.80654 14.660386,4.60925 2.124798,0.49057 7.324796,1.52986 7.794423,0.51214 0.07685,-0.16654 0.02896,-0.38934 -0.181727,-0.67735 -0.588843,-0.80495 -5.351732,-3.30398 -5.65996,-3.46272 -11.276895,-5.95922 -16.673816,-7.27268 -18.919399,-7.52018 z"/>
        <path d="m 48.100161,953.54009 c -0.182674,0.0167 -0.35154,0.17246 -0.495619,0.49892 -0.402687,0.91243 -0.188457,6.28177 -0.171813,6.62807 0.470537,12.55703 1.99393,17.91869 2.907627,20.05272 0.955097,-0.43748 2.060996,-0.51848 3.10257,-0.17182 0.580003,-1.67633 1.476988,-4.37943 1.447205,-4.99913 -0.04193,-0.87245 -2.290657,-11.59173 -3.333859,-15.00402 -0.637549,-2.08542 -2.339769,-7.10702 -3.456111,-7.00474 z"/>
        <path d="m 47.908522,985.18366 c -1.716128,0.32806 -4.713996,0.93611 -5.256858,1.28531 -0.734592,0.47253 -8.892997,7.78187 -11.326528,10.39146 -1.730618,1.85582 -6.183724,6.94777 -3.660966,6.67437 0.991531,-0.1075 5.536887,-2.9778 5.828469,-3.1654 10.611197,-6.66826 14.501935,-10.66451 15.902737,-12.52922 -0.819752,-0.68079 -1.33845,-1.63622 -1.486854,-2.65652 z"/>
    </g>
</svg>