<svg xmlns="http://www.w3.org/2000/svg" viewBox="0 0 100 100">
    <g transform="translate(0,-952.36217)">
        <path d="m 50.751702,993.03361 2.605442,0 1.172837,58.64579 -5.286594,0 z"/>
        <path d="m 50.755774,988.66999 0,2.99716 2.642451,0 0,-2.98178 c -0.851509,0.19175 -1.762006,0.19601 -2.642451,-0.0154 z"/>
        <path d="m 50.102459,991.89764 c -0.07744,0 -0.138774,0.1601 -0.138774,0.35684 l 0,0.19164 c 0,0.19675 0.06134,0.35685 0.138774,0.35685 l 3.951729,0 c 0.07743,0 0.138773,-0.1601 0.138773,-0.35685 l 0,-0.19164 c 0,-0.19674 -0.06134,-0.35684 -0.138773,-0.35684 l -3.951729,0 z m 3.9286,0.0463 0.0099,0 c 0.0022,0 0.07599,0.14429 0.07599,0.3205 l 0,0.17181 c 0,0.1762 -0.07053,0.3172 -0.07269,0.3172 l -0.01322,0 c 0.01737,-0.075 0.03635,-0.17784 0.03635,-0.29077 l 0,-0.22798 c 0,-0.11431 -0.01817,-0.21549 -0.03635,-0.29076 z"/>
    </g>
</svg>